<?xml version="1.0" standalone="no"?>
<!DOCTYPE svg PUBLIC "-//W3C//DTD SVG 20010904//EN"
 "https://www.w3.org/TR/2001/REC-SVG-20010904/DTD/svg10.dtd">
<svg version="1.0" xmlns="https://www.w3.org/2000/svg"
 width="70.000000pt" height="70.000000pt" viewBox="0 0 70.000000 70.000000"
 preserveAspectRatio="xMidYMid meet">
<metadata>
Created by potrace 1.14, written by Peter Selinger 2001-2017
</metadata>
<g transform="translate(0.000000,70.000000) scale(0.100000,-0.100000)"
fill="#000000" stroke="none">
<path d="M255 686 c-53 -17 -96 -39 -134 -72 -36 -30 -39 -44 -11 -44 18 0 25
-10 21 -32 -2 -12 4 -10 35 17 54 46 110 66 188 66 91 0 107 8 86 46 -14 24
-21 27 -80 29 -36 1 -83 -4 -105 -10z"/>
<path d="M484 647 c4 -17 1 -27 -9 -31 -20 -7 -19 -23 3 -30 51 -17 107 -91
132 -176 22 -72 39 -89 66 -63 53 53 -52 249 -166 308 l-33 17 7 -25z"/>
<path d="M69 539 c-64 -24 -89 -231 -39 -329 22 -43 23 -44 32 -21 6 17 14 22
29 18 16 -4 19 -2 14 11 -37 89 -40 171 -8 243 14 31 17 52 12 67 -5 12 -10
22 -11 21 -2 0 -15 -5 -29 -10z"/>
<path d="M364 528 c-4 -7 -8 -51 -8 -98 l-1 -85 -85 0 c-62 1 -87 -3 -94 -13
-14 -24 10 -29 122 -28 l106 1 -3 110 c-1 60 -5 113 -7 117 -8 12 -22 10 -30
-4z"/>
<path d="M490 330 l-35 -5 -1 -142 c-1 -119 1 -143 14 -148 21 -8 31 12 27 52
-3 33 7 47 35 48 88 5 129 52 115 132 -9 48 -75 75 -155 63z m105 -60 c20 -23
11 -66 -19 -82 -23 -13 -75 -19 -77 -9 -1 3 -2 29 -3 56 -2 35 2 52 12 56 24
9 70 -2 87 -21z"/>
<path d="M87 173 c-30 -29 35 -107 120 -145 50 -22 157 -34 192 -21 21 8 22
11 8 24 -10 10 -12 21 -6 31 7 13 1 15 -44 15 -75 0 -129 18 -186 63 -49 39
-70 47 -84 33z"/>
</g>
</svg>
