<svg version="1.0" xmlns="http://www.w3.org/2000/svg" width="306.667" height="306.667" viewBox="0 0 230 230"><path d="M0 115v115h230V0H0v115zm29-10.3c0 19.7.2 23.3 1.8 26.3 5.4 10.8 21.3 10.8 27.6 0 1.9-3.2 2.1-5.4 2.4-26.3l.3-22.7H71v65h-5c-4.7 0-5-.2-5-2.5 0-2.8-1.2-3.2-3-1.1-.6.8-3.4 2.2-6.2 3.2-11.3 3.7-23.3-.4-29.3-10l-3-4.9-.3-24.9-.3-24.8H29v22.7zm58-11.2c0 10.6.7 13.4 2.6 10.4 1.4-2.3 9.6-5 14.8-5 14.1 0 24.6 10.5 24.6 24.5-.1 7.8-2.4 13-8.3 18.2-5.1 4.5-10.2 6.4-17 6.4-4.6 0-12.9-2.9-14.1-4.9-1.2-1.9-2.6-1.2-2.6 1.4 0 2.3-.4 2.5-4.5 2.5H78V82h9v11.5zm82.1 8.3c3.8 2 6.2 4.1 8.2 7.3 2.6 4.3 4.8 13 3.9 15.7-.3.9-5.4 1.2-19.4 1.2h-19l.6 2.6c1.5 6 8.8 11.4 15.2 11.4 3.4 0 10.3-3 12.2-5.3 1.3-1.5 1.7-1.4 4.8.6 1.8 1.2 3.2 2.6 3.1 3.2-.7 2-8.9 7.5-13 8.6-6.2 1.7-14.9.6-20.2-2.6-14.4-8.4-16.5-27.6-4.3-39.2 7.3-7 18.5-8.4 27.9-3.5zm41.9 1.7v4.5h-3.8c-2.1 0-4.8.7-6.1 1.6-4.2 3-5.1 7.2-5.1 22.9V147h-9v-47h4.5c4.2 0 4.5.2 4.5 2.7v2.7l2.8-2.6c3.2-3 4.6-3.6 9-3.7 3.1-.1 3.2 0 3.2 4.4z"/><path d="M96.1 108.7c-8 4-11.1 15.7-6.3 23.5 2.5 4 9.1 7.8 13.7 7.8 5.1 0 11.3-3.8 14.1-8.6 8.1-13.8-7-29.8-21.5-22.7zm54.1.3c-2.9 1.8-7.2 7.3-7.2 9.2 0 .5 6.5.8 14.5.8s14.5-.3 14.5-.8c0-.4-.9-2.2-2-4-2.7-4.3-7.6-7.2-12.5-7.2-2.2 0-5.4.9-7.3 2z"/></svg>