<?xml version="1.0" standalone="no"?>
<!DOCTYPE svg PUBLIC "-//W3C//DTD SVG 20010904//EN"
 "https://www.w3.org/TR/2001/REC-SVG-20010904/DTD/svg10.dtd">
<svg version="1.0" xmlns="https://www.w3.org/2000/svg"
 width="83.000000pt" height="83.000000pt" viewBox="0 0 83.000000 83.000000"
 preserveAspectRatio="xMidYMid meet">
<metadata>
Created by potrace 1.14, written by Peter Selinger 2001-2017
</metadata>
<g transform="translate(0.000000,83.000000) scale(0.100000,-0.100000)"
fill="#000000" stroke="none">
<path d="M316 759 c-21 -5 -65 -23 -97 -41 -217 -115 -280 -398 -135 -603 l35
-48 6 36 c4 20 19 48 33 62 l25 26 -22 40 c-31 54 -29 106 5 177 15 31 27 69
27 85 0 15 3 27 7 27 3 0 46 -13 95 -30 49 -17 99 -30 112 -30 12 0 63 14 113
30 50 17 92 30 95 30 3 0 5 -12 5 -27 0 -16 14 -55 30 -87 37 -72 40 -140 10
-179 -25 -32 -25 -33 7 -61 15 -13 32 -40 38 -61 l10 -38 38 55 c97 140 100
325 6 463 -98 146 -272 214 -443 174z m244 -130 c136 -45 157 -54 144 -61 -7
-4 -252 -82 -289 -92 -17 -5 -285 88 -286 99 -1 12 236 93 276 94 16 1 86 -17
155 -40z"/>
<path d="M247 413 c-3 -3 -3 -11 0 -19 3 -8 -1 -22 -10 -32 -60 -69 3 -178 87
-150 17 6 36 15 43 20 8 6 14 2 18 -14 14 -44 26 -50 46 -24 11 13 19 30 19
36 0 9 8 7 25 -4 87 -57 184 40 126 127 -10 16 -16 37 -14 47 4 16 1 18 -23
14 -89 -15 -134 -51 -134 -106 0 -36 -23 -33 -25 3 -3 40 -22 66 -64 83 -47
18 -87 27 -94 19z m46 -66 c-7 -44 16 -65 52 -49 14 7 25 18 25 27 0 8 4 15 9
15 19 0 1 -66 -24 -87 -41 -36 -96 -24 -112 24 -12 34 -2 66 29 87 29 20 28
21 21 -17z m284 1 c11 -13 16 -39 14 -70 0 -10 -12 -25 -26 -34 -46 -30 -108
3 -120 65 -5 27 12 37 20 12 7 -22 38 -36 56 -26 18 12 27 49 17 68 -8 16 -7
17 10 8 10 -5 23 -16 29 -23z"/>
</g>
</svg>
