<svg width="20" height="20" viewBox="0 0 20 20" fill="none" xmlns="http://www.w3.org/2000/svg">
<path d="M13.75 0H6.25C2.79875 0 0 2.79875 0 6.25V13.75C0 17.2013 2.79875 20 6.25 20H13.75C17.2013 20 20 17.2013 20 13.75V6.25C20 2.79875 17.2013 0 13.75 0ZM18.125 13.75C18.125 16.1625 16.1625 18.125 13.75 18.125H6.25C3.8375 18.125 1.875 16.1625 1.875 13.75V6.25C1.875 3.8375 3.8375 1.875 6.25 1.875H13.75C16.1625 1.875 18.125 3.8375 18.125 6.25V13.75Z" fill="white"/>
<path d="M5 9.99995C5 12.7612 7.23875 14.9999 10 14.9999C12.7613 14.9999 15 12.7612 15 9.99995C15 7.2387 12.7612 4.99995 10 4.99995C7.23875 4.99995 5 7.2387 5 9.99995ZM13.125 9.99995C13.125 11.7224 11.7225 13.1249 10 13.1249C8.27625 13.1249 6.875 11.7224 6.875 9.99995C6.875 8.27745 8.27625 6.87495 10 6.87495C11.7225 6.87495 13.125 8.27745 13.125 9.99995Z" fill="white"/>
<path d="M5.29123 4.62495C5.29123 4.25699 4.99295 3.9587 4.62499 3.9587C4.25703 3.9587 3.95874 4.25699 3.95874 4.62495C3.95874 4.99291 4.25703 5.2912 4.62499 5.2912C4.99295 5.2912 5.29123 4.99291 5.29123 4.62495Z" fill="white"/>
</svg>
