<?xml version="1.0" standalone="no"?>
<!DOCTYPE svg PUBLIC "-//W3C//DTD SVG 20010904//EN"
 "https://www.w3.org/TR/2001/REC-SVG-20010904/DTD/svg10.dtd">
<svg version="1.0" xmlns="http://www.w3.org/2000/svg"
 width="460.000000pt" height="460.000000pt" viewBox="0 0 460.000000 460.000000"
 preserveAspectRatio="xMidYMid meet">
<metadata>
Created by potrace 1.14, written by Peter Selinger 2001-2017
</metadata>
<g transform="translate(0.000000,460.000000) scale(0.100000,-0.100000)"
fill="#000000" stroke="none">
<path d="M0 2300 l0 -2300 1580 0 c1246 0 1585 3 1601 13 17 9 23 9 26 0 4
-10 114 -13 506 -13 l502 0 29 41 c20 29 34 39 47 36 21 -6 25 3 8 20 -13 13
-8 21 76 145 28 40 55 80 60 89 74 121 108 180 123 211 9 21 23 38 30 38 9 0
12 24 12 86 l0 87 -29 -6 c-86 -17 -153 48 -155 151 -1 50 3 64 27 95 31 41
93 77 132 77 l25 0 -1 443 c0 301 -3 434 -10 417 -6 -13 -14 -27 -20 -30 -5
-4 -15 -30 -21 -58 -13 -54 -28 -69 -28 -29 0 12 -4 29 -10 37 -20 31 -23 -25
-7 -109 30 -153 31 -187 5 -218 -59 -72 -210 -220 -273 -268 -62 -47 -164
-132 -307 -257 -55 -47 -108 -81 -116 -74 -3 3 2 14 11 24 18 19 23 52 9 52
-5 0 -21 -12 -35 -27 -30 -31 -42 -42 -112 -97 -50 -40 -109 -91 -196 -169
-67 -61 -127 -109 -163 -132 -17 -11 -33 -23 -34 -28 -8 -17 -101 -55 -174
-71 -73 -16 -80 -16 -133 0 -61 20 -105 68 -105 118 0 43 -21 118 -42 148 -10
14 -18 33 -18 41 0 9 -17 26 -37 38 -55 34 -80 69 -49 69 8 0 17 -6 19 -12 4
-10 6 -10 6 0 1 6 8 12 16 12 8 0 15 4 15 8 0 5 12 14 27 21 39 18 16 33 -30
19 -42 -13 -160 1 -180 21 -6 6 -10 36 -9 66 2 45 -2 62 -24 94 -17 26 -24 47
-19 60 5 17 -1 22 -37 32 -89 24 -139 44 -155 61 -15 16 -15 24 0 85 8 38 22
87 31 109 24 66 38 207 34 353 l-3 135 80 68 c44 37 84 68 88 68 5 0 28 19 53
43 43 40 119 91 157 104 14 4 16 8 6 14 -8 4 -11 10 -9 12 98 79 131 106 154
122 50 35 170 123 197 144 15 12 34 24 43 27 9 3 16 10 16 15 0 13 -70 191
-80 204 -4 6 -11 21 -15 35 -16 57 -49 110 -68 110 -17 0 -71 39 -141 103 -38
34 -244 137 -275 137 -16 0 -25 -9 -32 -30 -6 -16 -15 -30 -19 -30 -5 0 -14
-17 -21 -37 -6 -20 -20 -51 -31 -69 -12 -20 -18 -46 -16 -66 3 -30 6 -33 41
-36 21 -2 45 2 53 9 8 6 57 27 110 45 53 18 105 42 116 53 10 12 21 21 24 21
8 0 67 -32 81 -44 27 -24 40 -34 61 -45 34 -18 26 -40 -20 -62 -24 -11 -61
-31 -83 -44 -22 -14 -53 -32 -70 -40 -16 -8 -59 -33 -94 -55 -34 -22 -65 -40
-67 -40 -5 0 -94 -61 -115 -80 -10 -8 -28 -23 -41 -32 -13 -9 -36 -28 -53 -41
-16 -13 -41 -30 -54 -37 -21 -11 -26 -10 -38 6 -7 10 -13 30 -13 45 0 16 -7
54 -15 86 -21 79 -21 310 0 360 8 20 13 38 10 41 -2 3 -11 -10 -19 -29 -14
-32 -15 -30 -9 56 5 81 4 88 -11 76 -14 -12 -68 -114 -79 -151 -2 -8 0 -23 5
-34 9 -17 12 -14 29 20 l18 39 -6 -54 c-3 -29 -16 -92 -29 -140 l-24 -86 5 80
4 80 -20 -115 c-16 -94 -18 -122 -8 -155 6 -22 12 -58 13 -80 2 -22 6 -72 10
-111 l8 -70 -39 -29 c-21 -16 -40 -30 -42 -31 -10 -8 1 -257 14 -288 13 -29
13 -36 0 -46 -19 -16 -3 -126 17 -114 7 5 9 -7 4 -40 -5 -34 -3 -59 10 -92 11
-30 14 -48 7 -55 -7 -7 -2 -42 14 -107 13 -53 31 -128 39 -167 12 -48 26 -79
45 -100 34 -36 36 -45 10 -38 -19 5 -19 3 -5 -49 7 -29 14 -57 14 -63 0 -21
-39 55 -45 88 -4 18 -18 47 -31 63 l-24 29 6 -40 c4 -22 12 -55 20 -73 24 -60
-5 -32 -37 36 -28 59 -41 73 -98 112 -36 24 -93 72 -127 107 -60 62 -124 166
-124 199 0 13 -3 15 -11 7 -13 -13 8 -96 55 -213 19 -47 32 -87 29 -90 -2 -3
-8 2 -13 11 -12 21 -54 68 -44 50 5 -10 3 -12 -5 -7 -7 5 -10 14 -7 22 3 8 0
13 -6 11 -6 -1 -20 17 -32 39 -11 23 -24 42 -29 43 -4 1 -26 -34 -48 -76 -44
-84 -79 -137 -85 -130 -4 4 16 58 36 102 15 30 48 135 55 175 5 28 0 49 -24
97 -62 123 -71 168 -81 363 -7 135 -7 131 -5 -65 1 -115 6 -221 9 -235 5 -18
5 -21 -2 -10 -6 8 -20 62 -33 120 -34 156 -32 371 5 579 15 85 29 158 32 163
3 4 9 29 14 56 21 121 144 360 256 498 89 111 271 269 347 302 15 6 47 27 71
44 41 31 44 37 50 93 12 116 78 279 163 403 24 35 43 67 43 71 0 5 12 16 26
26 25 16 25 16 15 -4 -6 -11 -16 -23 -21 -26 -5 -3 -15 -16 -21 -28 -7 -11 19
6 57 40 96 84 205 153 267 168 120 29 299 59 317 53 7 -2 -12 -21 -43 -42 -32
-20 -57 -40 -57 -45 0 -4 -20 -22 -45 -41 -25 -19 -45 -39 -45 -44 -1 -6 -28
-36 -62 -66 -86 -76 -135 -128 -168 -176 l-27 -41 31 15 c17 8 42 24 56 35
l25 19 -25 -7 c-23 -7 -24 -7 -10 11 26 35 95 101 118 113 12 6 50 20 84 31
255 78 535 42 848 -110 52 -25 106 -53 120 -62 14 -8 52 -30 85 -48 33 -17 67
-37 75 -44 20 -18 50 -27 50 -17 0 5 -8 15 -18 22 -15 12 -15 13 3 1 11 -7 30
-17 43 -22 48 -21 302 -206 302 -221 0 -5 5 -9 10 -9 7 0 10 178 10 515 l0
515 -2300 0 -2300 0 0 -2300z m2226 -547 c3 -16 14 -57 24 -93 15 -51 16 -61
4 -45 -13 18 -54 135 -54 156 0 21 20 7 26 -18z m2064 -689 c10 -26 -1 -64
-19 -64 -11 0 -21 25 -21 54 0 43 26 49 40 10z m-150 -196 c0 -6 12 -26 26
-45 14 -18 26 -42 27 -53 1 -18 6 -20 44 -14 32 5 43 3 43 -7 0 -18 -42 -109
-51 -109 -4 0 -10 -11 -13 -25 -4 -15 -17 -30 -31 -35 -18 -7 -25 -17 -25 -35
0 -14 -10 -36 -22 -49 -13 -12 -34 -39 -48 -59 -14 -20 -28 -37 -32 -37 -7 0
-88 -78 -88 -85 0 -3 -17 -20 -37 -40 -77 -72 -67 -69 -100 -38 -38 36 -53 64
-53 102 0 39 -5 39 -37 0 -15 -18 -32 -28 -40 -25 -48 19 -63 18 -63 -2 0 -16
9 -20 46 -25 70 -7 86 -42 45 -96 l-18 -24 -45 21 c-24 12 -50 22 -57 22 -6 0
-30 10 -51 22 -28 16 -40 30 -40 46 0 14 -6 22 -17 22 -20 0 -73 48 -73 67 0
7 -9 18 -20 25 -34 21 -28 26 58 48 30 7 34 6 42 -16 5 -13 12 -24 14 -24 9 0
81 42 86 51 3 4 28 9 55 11 l50 3 0 38 c0 30 7 45 30 66 17 15 35 36 41 47 10
16 21 18 68 16 44 -3 56 -1 56 11 0 8 -7 20 -15 27 -22 18 -18 60 7 87 32 34
42 29 33 -19 -11 -65 -9 -93 6 -116 14 -19 15 -15 15 49 0 38 5 74 11 80 12
12 45 14 85 4 25 -7 27 -5 33 38 4 25 13 48 21 51 8 3 14 15 14 26 0 12 5 18
10 15 6 -3 10 -11 10 -17z m-375 -162 c24 -18 15 -37 -29 -61 -50 -27 -65 -11
-36 39 24 39 36 43 65 22z m215 -451 c0 -19 -56 -79 -63 -68 -9 14 23 71 41
76 10 3 18 5 20 6 1 0 2 -6 2 -14z"/>
<path d="M3906 495 c-11 -8 -29 -15 -41 -15 -27 0 -65 -27 -65 -46 0 -12 4
-13 21 -3 12 6 39 8 63 5 l41 -6 2 40 c0 22 0 40 0 40 -1 0 -11 -7 -21 -15z"/>
<path d="M2899 4228 c-82 -42 -194 -123 -254 -185 -57 -59 -129 -165 -150
-218 -9 -23 -10 -32 -2 -21 106 163 154 220 257 306 52 44 89 68 145 95 31 15
84 54 74 55 -3 0 -34 -15 -70 -32z"/>
<path d="M2835 3970 c-3 -5 -2 -10 4 -10 5 0 13 5 16 10 3 6 2 10 -4 10 -5 0
-13 -4 -16 -10z"/>
<path d="M2765 3900 c-3 -5 -1 -10 4 -10 6 0 11 5 11 10 0 6 -2 10 -4 10 -3 0
-8 -4 -11 -10z"/>
<path d="M2700 3785 c-7 -9 -8 -15 -2 -15 5 0 12 7 16 15 3 8 4 15 2 15 -2 0
-9 -7 -16 -15z"/>
<path d="M3975 3731 c-3 -5 4 -13 16 -16 28 -9 36 1 10 14 -12 7 -22 7 -26 2z"/>
<path d="M2412 3600 c0 -14 2 -19 5 -12 2 6 2 18 0 25 -3 6 -5 1 -5 -13z"/>
<path d="M2827 3609 c-17 -10 -23 -29 -9 -29 5 0 16 6 27 13 22 17 7 29 -18
16z"/>
<path d="M2573 3585 c-12 -23 -49 -138 -56 -175 -3 -14 -2 -34 2 -45 6 -14 12
0 24 54 10 40 17 83 17 95 0 12 7 32 16 44 8 12 14 28 11 35 -2 7 -8 4 -14 -8z"/>
<path d="M2390 3521 c0 -5 -3 -16 -6 -25 -3 -9 -2 -16 4 -16 13 0 23 38 11 46
-5 3 -9 1 -9 -5z"/>
<path d="M3920 3430 c0 -5 3 -10 8 -10 4 0 25 -15 47 -34 l39 -33 -49 -22
c-27 -12 -55 -19 -62 -17 -7 3 -13 1 -13 -5 0 -5 -12 -14 -27 -20 -52 -18
-143 -63 -143 -70 0 -3 -21 -14 -47 -24 -27 -10 -50 -22 -53 -26 -3 -4 -18
-11 -34 -15 -26 -6 -27 -5 -17 13 6 12 21 23 33 27 13 3 28 17 35 32 12 25 11
26 -15 19 -49 -11 -182 -80 -182 -93 0 -7 6 -23 12 -35 7 -12 18 -40 24 -62
28 -93 112 -308 123 -315 7 -4 22 1 35 12 31 28 95 51 139 51 33 -1 36 1 25
14 -11 13 -10 18 6 27 10 6 39 26 63 44 24 17 45 32 48 32 12 0 177 110 228
152 32 26 65 48 73 48 8 0 14 5 14 10 0 10 -22 49 -43 75 -4 6 -35 47 -69 93
-52 68 -66 82 -84 78 -14 -4 -28 2 -40 15 -24 27 -74 53 -74 39z m-271 -490
c0 -17 -23 33 -33 71 -3 13 3 6 14 -16 11 -22 19 -47 19 -55z"/>
<path d="M2184 3378 c-81 -61 -284 -271 -284 -294 0 -6 -9 -19 -20 -29 -11
-10 -20 -22 -20 -28 0 -5 -9 -21 -19 -36 -29 -40 -62 -129 -51 -136 5 -3 19
11 30 32 36 67 82 137 109 169 14 18 37 47 51 65 14 19 65 74 115 123 121 121
171 197 89 134z"/>
<path d="M4350 3361 c0 -6 4 -13 10 -16 6 -3 7 1 4 9 -7 18 -14 21 -14 7z"/>
<path d="M2402 3130 c0 -19 2 -27 5 -17 2 9 2 25 0 35 -3 9 -5 1 -5 -18z"/>
<path d="M2390 3072 c0 -10 -4 -22 -10 -28 -6 -6 -3 -41 8 -99 14 -76 17 -84
20 -51 2 22 -1 58 -7 81 -6 23 -8 58 -4 78 3 20 3 37 -1 37 -3 0 -6 -8 -6 -18z"/>
<path d="M2980 3041 c0 -5 5 -13 10 -16 6 -3 10 -2 10 4 0 5 -4 13 -10 16 -5
3 -10 2 -10 -4z"/>
<path d="M4127 3007 c29 -48 98 -145 101 -142 10 9 -84 155 -99 155 -6 0 -6
-6 -2 -13z"/>
<path d="M2410 2823 c0 -13 5 -23 10 -23 13 0 13 11 0 30 -8 12 -10 11 -10 -7z"/>
<path d="M3875 2777 c24 -16 86 -34 140 -41 28 -4 15 3 -45 24 -94 32 -126 38
-95 17z"/>
<path d="M4155 2709 c-4 -6 -5 -12 -2 -15 2 -3 7 2 10 11 7 17 1 20 -8 4z"/>
<path d="M4125 2680 c-3 -5 -1 -10 4 -10 6 0 11 5 11 10 0 6 -2 10 -4 10 -3 0
-8 -4 -11 -10z"/>
<path d="M3860 2630 c36 -12 98 -12 105 0 4 6 -19 10 -62 9 -49 -1 -61 -3 -43
-9z"/>
<path d="M3990 2630 c0 -13 11 -13 30 0 12 8 11 10 -7 10 -13 0 -23 -4 -23
-10z"/>
<path d="M4202 2553 c-24 -10 0 -23 42 -23 30 0 58 -10 99 -34 55 -33 79 -29
39 7 -32 29 -150 62 -180 50z"/>
<path d="M3954 2539 c17 -10 18 -20 12 -113 l-7 -101 20 25 c23 28 26 40 10
40 -18 0 -1 132 19 148 13 10 9 12 -29 12 -36 -1 -41 -2 -25 -11z"/>
<path d="M4145 2542 c-25 -9 -65 -43 -65 -56 0 -5 13 3 29 18 15 15 38 28 50
29 11 1 21 5 21 9 0 9 -6 9 -35 0z"/>
<path d="M4150 2453 c-8 -10 -32 -38 -52 -62 -51 -60 -50 -77 7 -84 24 -4 52
-4 60 -1 9 4 25 -2 35 -11 25 -23 26 -5 1 26 -10 13 -16 29 -14 35 2 6 -3 17
-12 24 -18 15 -20 60 -2 60 6 0 27 -9 45 -20 36 -22 41 -16 13 17 -26 31 -62
38 -81 16z"/>
<path d="M3800 2396 c0 -9 5 -16 10 -16 6 0 10 4 10 9 0 6 -4 13 -10 16 -5 3
-10 -1 -10 -9z"/>
<path d="M3901 2355 c1 -19 18 -51 18 -35 0 8 -4 22 -9 30 -5 8 -9 11 -9 5z"/>
<path d="M3061 2311 c-7 -5 -12 -13 -10 -19 3 -6 18 -3 39 8 33 18 33 19 10
19 -14 1 -31 -3 -39 -8z"/>
<path d="M4418 2290 c-9 -19 -19 -57 -23 -85 -4 -27 -16 -66 -27 -85 -11 -19
-24 -48 -29 -65 -8 -28 -7 -29 7 -10 8 11 21 28 29 37 27 33 44 75 55 141 15
86 10 115 -12 67z"/>
<path d="M3927 2266 c20 -90 44 -110 36 -29 -4 29 -10 43 -23 46 -14 3 -16 0
-13 -17z"/>
<path d="M4240 2283 c0 -6 -3 -20 -6 -30 -5 -15 -4 -15 5 -3 9 13 11 13 12 0
1 -8 2 -19 4 -25 1 -5 3 -16 3 -22 3 -19 22 -16 22 3 0 8 5 12 10 9 19 -12 9
10 -20 45 -16 19 -30 30 -30 23z"/>
<path d="M4075 2201 c-3 -10 -3 -26 1 -35 3 -8 -3 -32 -15 -51 -22 -37 -30
-129 -12 -139 5 -4 7 3 4 14 -6 23 24 100 39 100 6 0 19 -22 31 -50 11 -27 25
-50 30 -50 6 0 8 29 5 69 -3 39 -1 74 3 78 5 5 3 18 -6 29 -15 18 -15 18 -26
0 -9 -15 -13 -16 -20 -5 -5 8 -9 24 -9 37 0 27 -16 29 -25 3z"/>
<path d="M2675 2130 c-29 -12 -92 -69 -77 -70 25 0 90 40 95 60 3 11 4 20 4
19 -1 0 -11 -4 -22 -9z"/>
<path d="M2611 2041 c-14 -4 -26 -12 -29 -19 -3 -9 4 -9 27 -1 17 6 31 15 31
20 0 5 -1 9 -2 8 -2 -1 -14 -4 -27 -8z"/>
<path d="M3200 2025 c-19 -8 -78 -27 -131 -44 -53 -16 -128 -46 -167 -66 -74
-37 -92 -42 -92 -25 0 15 23 53 40 67 19 16 12 16 -29 2 -17 -6 -36 -20 -42
-30 -5 -11 -14 -17 -20 -14 -5 4 -9 -8 -9 -26 0 -18 -5 -47 -12 -66 -14 -39
-8 -49 22 -33 12 6 24 9 27 7 9 -10 -8 -47 -23 -47 -8 0 -14 -4 -14 -10 0 -5
7 -10 15 -10 8 0 15 -7 15 -15 0 -20 46 -30 76 -16 14 6 42 11 63 11 21 0 54
3 72 7 l34 8 -45 5 -45 6 60 29 c73 35 135 88 209 178 75 92 74 112 -4 82z
m-125 -170 c-33 -27 -45 -31 -45 -15 0 6 15 17 33 25 45 20 47 18 12 -10z
m-105 -30 c40 -21 38 -32 -12 -55 -50 -23 -79 -25 -96 -8 -20 20 -14 33 26 55
46 26 47 26 82 8z m-136 -64 c9 -14 -4 -41 -20 -41 -8 0 -14 8 -14 18 0 29 22
43 34 23z"/>
<path d="M3801 1894 c0 -11 3 -14 6 -6 3 7 2 16 -1 19 -3 4 -6 -2 -5 -13z"/>
<path d="M4300 1888 c0 -31 103 -208 121 -208 4 0 -11 31 -35 69 -23 38 -48
87 -56 110 -12 38 -30 56 -30 29z"/>
<path d="M4030 1838 c0 -26 5 -50 10 -53 6 -3 10 -16 10 -27 0 -12 3 -18 6
-15 4 3 16 0 28 -8 32 -23 78 -18 105 10 28 31 24 39 -13 25 -37 -14 -81 -13
-93 3 -6 6 -16 30 -23 52 -19 60 -30 65 -30 13z"/>
<path d="M1923 1820 c15 -106 83 -265 147 -344 48 -60 59 -70 66 -64 4 5 0 16
-9 25 -8 10 -32 54 -53 98 -20 44 -56 120 -80 169 -24 49 -44 94 -44 100 0 6
-8 20 -16 31 -15 19 -16 18 -11 -15z"/>
<path d="M4236 1795 c4 -8 8 -15 10 -15 2 0 4 7 4 15 0 8 -4 15 -10 15 -5 0
-7 -7 -4 -15z"/>
<path d="M4270 1752 c6 -13 14 -21 18 -18 3 4 -2 14 -12 24 -18 16 -18 16 -6
-6z"/>
<path d="M3990 1681 c0 -62 11 -142 19 -137 10 6 1 186 -10 186 -5 0 -9 -22
-9 -49z"/>
<path d="M1885 1683 c24 -56 35 -62 18 -9 -9 25 -19 46 -24 46 -5 0 -2 -17 6
-37z"/>
<path d="M4310 1711 c0 -6 4 -13 10 -16 6 -3 7 1 4 9 -7 18 -14 21 -14 7z"/>
<path d="M4436 1655 c4 -8 11 -15 16 -15 6 0 5 6 -2 15 -7 8 -14 15 -16 15 -2
0 -1 -7 2 -15z"/>
<path d="M1846 1497 c3 -10 9 -15 12 -12 3 3 0 11 -7 18 -10 9 -11 8 -5 -6z"/>
<path d="M2210 1381 c0 -6 5 -13 10 -16 6 -3 10 1 10 9 0 9 -4 16 -10 16 -5 0
-10 -4 -10 -9z"/>
<path d="M2606 1251 c-4 -5 3 -7 14 -4 23 6 26 13 6 13 -8 0 -17 -4 -20 -9z"/>
<path d="M4533 1013 c-26 -5 -71 -55 -79 -89 -10 -38 3 -69 48 -118 36 -38 47
-44 71 -40 20 5 27 12 27 30 0 20 -5 24 -33 24 -69 0 -103 58 -71 125 13 29
25 37 60 46 65 17 45 35 -23 22z"/>
<path d="M2953 939 c25 -15 71 -19 88 -8 17 10 19 10 -51 15 -42 3 -51 1 -37
-7z"/>
<path d="M4380 21 c6 -12 20 -21 30 -21 28 0 25 7 -11 25 -30 16 -30 16 -19
-4z"/>
</g>
</svg>
